<svg xmlns="http://www.w3.org/2000/svg" version="1.1" xmlns:xlink="http://www.w3.org/1999/xlink" xmlns:svgjs="http://svgjs.com/svgjs" width="1440" height="560" preserveAspectRatio="none" viewBox="0 0 1440 560"><g mask="url(&quot;#SvgjsMask1008&quot;)" fill="none"><rect width="1440" height="560" x="0" y="0" fill="rgba(255, 255, 255, 1)"></rect><path d="M147.37 242.16L147.37 244.96L158.08 244.96L158.08 242.16zM153.13 243.56 a4.95 4.95 0 1 0 9.9 0 a4.95 4.95 0 1 0 -9.9 0zM143.84 262.69L142.77 265.28L162.51 273.45L163.58 270.87zM158.09 272.16 a4.95 4.95 0 1 0 9.9 0 a4.95 4.95 0 1 0 -9.9 0zM132.73 280.31L130.75 282.29L147.35 298.89L149.33 296.92zM143.39 297.91 a4.95 4.95 0 1 0 9.9 0 a4.95 4.95 0 1 0 -9.9 0zM115.71 292.34L113.13 293.41L119.48 308.74L122.06 307.67zM115.82 308.21 a4.95 4.95 0 1 0 9.9 0 a4.95 4.95 0 1 0 -9.9 0zM95.39 296.94L92.6 296.94L92.6 304.19L95.39 304.19zM89.04 304.19 a4.95 4.95 0 1 0 9.9 0 a4.95 4.95 0 1 0 -9.9 0zM74.86 293.41L72.28 292.34L64.16 311.93L66.74 313zM60.5 312.47 a4.95 4.95 0 1 0 9.9 0 a4.95 4.95 0 1 0 -9.9 0zM57.24 282.29L55.26 280.31L37.15 298.42L39.13 300.4zM33.19 299.41 a4.95 4.95 0 1 0 9.9 0 a4.95 4.95 0 1 0 -9.9 0zM45.22 265.28L44.15 262.69L36.02 266.06L37.09 268.64zM31.61 267.35 a4.95 4.95 0 1 0 9.9 0 a4.95 4.95 0 1 0 -9.9 0zM40.62 244.96L40.62 242.16L25.06 242.16L25.06 244.96zM20.11 243.56 a4.95 4.95 0 1 0 9.9 0 a4.95 4.95 0 1 0 -9.9 0zM44.15 224.42L45.22 221.84L34.29 217.31L33.22 219.9zM28.8 218.61 a4.95 4.95 0 1 0 9.9 0 a4.95 4.95 0 1 0 -9.9 0zM55.26 206.8L57.24 204.83L42.01 189.6L40.03 191.57zM36.07 190.58 a4.95 4.95 0 1 0 9.9 0 a4.95 4.95 0 1 0 -9.9 0zM72.28 194.78L74.86 193.71L67.34 175.55L64.75 176.62zM61.09 176.08 a4.95 4.95 0 1 0 9.9 0 a4.95 4.95 0 1 0 -9.9 0zM92.6 190.18L95.39 190.18L95.39 171.97L92.6 171.97zM89.04 171.97 a4.95 4.95 0 1 0 9.9 0 a4.95 4.95 0 1 0 -9.9 0zM113.13 193.71L115.71 194.78L119.13 186.53L116.55 185.46zM112.89 185.99 a4.95 4.95 0 1 0 9.9 0 a4.95 4.95 0 1 0 -9.9 0zM130.75 204.83L132.73 206.8L150.59 188.94L148.62 186.96zM144.66 187.95 a4.95 4.95 0 1 0 9.9 0 a4.95 4.95 0 1 0 -9.9 0zM142.77 221.84L143.84 224.42L165.67 215.38L164.6 212.8zM160.19 214.09 a4.95 4.95 0 1 0 9.9 0 a4.95 4.95 0 1 0 -9.9 0zM40.59 243.56 a53.4 53.4 0 1 0 106.8 0 a53.4 53.4 0 1 0 -106.8 0z" fill="rgba(219, 219, 219, 0.3)"></path><path d="M145.49 229.43 A52.3952 52.3952 0 0 1 80.59 295.24M80.59 295.24 A106.7904 106.7904 0 0 0 145.49 229.43" fill="rgba(175, 175, 175, 0.3)" fill-rule="nonzero"></path><path d="M59.8 249.06 a10.68 10.68 0 1 0 21.36 0 a10.68 10.68 0 1 0 -21.36 0zM73.36 289.48 a4.81 4.81 0 1 0 9.62 0 a4.81 4.81 0 1 0 -9.62 0zM58.66 270.51 a2.14 2.14 0 1 0 4.28 0 a2.14 2.14 0 1 0 -4.28 0zM77.99 224.71 a6.41 6.41 0 1 0 12.82 0 a6.41 6.41 0 1 0 -12.82 0zM140.94 252.79 a2.67 2.67 0 1 0 5.34 0 a2.67 2.67 0 1 0 -5.34 0zM84.69 197.69 a7.48 7.48 0 1 0 14.96 0 a7.48 7.48 0 1 0 -14.96 0zM128.48 278.8 a2.14 2.14 0 1 0 4.28 0 a2.14 2.14 0 1 0 -4.28 0zM94.41 255.84 a10.68 10.68 0 1 0 21.36 0 a10.68 10.68 0 1 0 -21.36 0zM111.58 225.16 a10.68 10.68 0 1 0 21.36 0 a10.68 10.68 0 1 0 -21.36 0zM83.69 272.85 a2.67 2.67 0 1 0 5.34 0 a2.67 2.67 0 1 0 -5.34 0z" fill="rgba(175, 175, 175, 0.3)" fill-rule="nonzero"></path><path d="M339.88 365.48L339.88 367.81L361.86 367.81L361.86 365.48zM357.73 366.64 a4.13 4.13 0 1 0 8.26 0 a4.13 4.13 0 1 0 -8.26 0zM336.94 382.59L336.05 384.74L352.3 391.47L353.19 389.32zM348.62 390.4 a4.13 4.13 0 1 0 8.26 0 a4.13 4.13 0 1 0 -8.26 0zM327.68 397.27L326.03 398.92L335.71 408.6L337.36 406.95zM332.4 407.78 a4.13 4.13 0 1 0 8.26 0 a4.13 4.13 0 1 0 -8.26 0zM313.5 407.29L311.35 408.19L317.61 423.3L319.76 422.41zM314.55 422.85 a4.13 4.13 0 1 0 8.26 0 a4.13 4.13 0 1 0 -8.26 0zM296.57 411.13L294.24 411.13L294.24 432.24L296.57 432.24zM291.27 432.24 a4.13 4.13 0 1 0 8.26 0 a4.13 4.13 0 1 0 -8.26 0zM279.46 408.19L277.3 407.29L271.09 422.29L273.24 423.18zM268.04 422.73 a4.13 4.13 0 1 0 8.26 0 a4.13 4.13 0 1 0 -8.26 0zM264.77 398.92L263.13 397.27L250.52 409.88L252.16 411.53zM247.21 410.71 a4.13 4.13 0 1 0 8.26 0 a4.13 4.13 0 1 0 -8.26 0zM254.75 384.74L253.86 382.59L244.22 386.58L245.12 388.73zM240.54 387.66 a4.13 4.13 0 1 0 8.26 0 a4.13 4.13 0 1 0 -8.26 0zM250.92 367.81L250.92 365.48L242.37 365.48L242.37 367.81zM238.24 366.64 a4.13 4.13 0 1 0 8.26 0 a4.13 4.13 0 1 0 -8.26 0zM253.86 350.7L254.75 348.55L237.83 341.54L236.94 343.69zM233.25 342.61 a4.13 4.13 0 1 0 8.26 0 a4.13 4.13 0 1 0 -8.26 0zM263.13 336.02L264.77 334.37L257.25 326.85L255.6 328.49zM252.3 327.67 a4.13 4.13 0 1 0 8.26 0 a4.13 4.13 0 1 0 -8.26 0zM277.3 326L279.46 325.1L274.14 312.28L271.99 313.17zM268.94 312.73 a4.13 4.13 0 1 0 8.26 0 a4.13 4.13 0 1 0 -8.26 0zM294.24 322.16L296.57 322.16L296.57 304.1L294.24 304.1zM291.27 304.1 a4.13 4.13 0 1 0 8.26 0 a4.13 4.13 0 1 0 -8.26 0zM311.35 325.1L313.5 326L319.1 312.48L316.95 311.59zM313.89 312.03 a4.13 4.13 0 1 0 8.26 0 a4.13 4.13 0 1 0 -8.26 0zM326.03 334.37L327.68 336.02L332.71 330.98L331.06 329.33zM327.76 330.16 a4.13 4.13 0 1 0 8.26 0 a4.13 4.13 0 1 0 -8.26 0zM336.05 348.55L336.94 350.7L354.98 343.23L354.08 341.08zM350.4 342.15 a4.13 4.13 0 1 0 8.26 0 a4.13 4.13 0 1 0 -8.26 0zM250.9 366.64 a44.5 44.5 0 1 0 89 0 a44.5 44.5 0 1 0 -89 0z" fill="rgba(219, 219, 219, 0.3)"></path><path d="M258.91 392.1 A43.496 43.496 0 0 1 291.51 322.32M291.51 322.32 A88.992 88.992 0 0 0 258.91 392.1" fill="rgba(175, 175, 175, 0.3)" fill-rule="nonzero"></path><path d="M304.11 358.43 a8.9 8.9 0 1 0 17.8 0 a8.9 8.9 0 1 0 -17.8 0zM266.67 337.99 a8.9 8.9 0 1 0 17.8 0 a8.9 8.9 0 1 0 -17.8 0zM251.89 374.1 a8.01 8.01 0 1 0 16.02 0 a8.01 8.01 0 1 0 -16.02 0zM298.32 327.29 a4.45 4.45 0 1 0 8.9 0 a4.45 4.45 0 1 0 -8.9 0zM282.71 356.68 a3.11 3.11 0 1 0 6.22 0 a3.11 3.11 0 1 0 -6.22 0zM276.21 379.36 a4.45 4.45 0 1 0 8.9 0 a4.45 4.45 0 1 0 -8.9 0zM330.56 369.81 a4.45 4.45 0 1 0 8.9 0 a4.45 4.45 0 1 0 -8.9 0zM317.38 379.57 a3.56 3.56 0 1 0 7.12 0 a3.56 3.56 0 1 0 -7.12 0zM324.63 343.62 a2.67 2.67 0 1 0 5.34 0 a2.67 2.67 0 1 0 -5.34 0zM318.02 395.75 a3.56 3.56 0 1 0 7.12 0 a3.56 3.56 0 1 0 -7.12 0z" fill="rgba(175, 175, 175, 0.3)" fill-rule="nonzero"></path><path d="M1214.91 347.42L1214.91 351.14L1237.98 351.14L1237.98 347.42zM1231.38 349.28 a6.6 6.6 0 1 0 13.2 0 a6.6 6.6 0 1 0 -13.2 0zM1210.2 374.79L1208.78 378.24L1230.53 387.25L1231.95 383.8zM1224.64 385.52 a6.6 6.6 0 1 0 13.2 0 a6.6 6.6 0 1 0 -13.2 0zM1195.38 398.29L1192.75 400.92L1202.54 410.72L1205.17 408.08zM1197.26 409.4 a6.6 6.6 0 1 0 13.2 0 a6.6 6.6 0 1 0 -13.2 0zM1172.7 414.32L1169.25 415.75L1178.78 438.74L1182.22 437.31zM1173.9 438.03 a6.6 6.6 0 1 0 13.2 0 a6.6 6.6 0 1 0 -13.2 0zM1145.6 420.45L1141.88 420.45L1141.88 447.03L1145.6 447.03zM1137.14 447.03 a6.6 6.6 0 1 0 13.2 0 a6.6 6.6 0 1 0 -13.2 0zM1118.23 415.75L1114.78 414.32L1106.43 434.49L1109.87 435.91zM1101.55 435.2 a6.6 6.6 0 1 0 13.2 0 a6.6 6.6 0 1 0 -13.2 0zM1094.73 400.92L1092.1 398.29L1072.4 417.98L1075.04 420.62zM1067.12 419.3 a6.6 6.6 0 1 0 13.2 0 a6.6 6.6 0 1 0 -13.2 0zM1078.7 378.24L1077.27 374.79L1062.44 380.94L1063.86 384.38zM1056.55 382.66 a6.6 6.6 0 1 0 13.2 0 a6.6 6.6 0 1 0 -13.2 0zM1072.57 351.14L1072.57 347.42L1054.92 347.42L1054.92 351.14zM1048.32 349.28 a6.6 6.6 0 1 0 13.2 0 a6.6 6.6 0 1 0 -13.2 0zM1077.27 323.77L1078.7 320.32L1065.88 315.01L1064.45 318.46zM1058.56 316.73 a6.6 6.6 0 1 0 13.2 0 a6.6 6.6 0 1 0 -13.2 0zM1092.1 300.27L1094.73 297.64L1088.05 290.96L1085.41 293.59zM1080.13 292.27 a6.6 6.6 0 1 0 13.2 0 a6.6 6.6 0 1 0 -13.2 0zM1114.78 284.24L1118.23 282.82L1112.35 268.63L1108.91 270.06zM1104.03 269.35 a6.6 6.6 0 1 0 13.2 0 a6.6 6.6 0 1 0 -13.2 0zM1141.88 278.11L1145.6 278.11L1145.6 255.56L1141.88 255.56zM1137.14 255.56 a6.6 6.6 0 1 0 13.2 0 a6.6 6.6 0 1 0 -13.2 0zM1169.25 282.82L1172.7 284.24L1182.16 261.39L1178.72 259.96zM1173.84 260.67 a6.6 6.6 0 1 0 13.2 0 a6.6 6.6 0 1 0 -13.2 0zM1192.75 297.64L1195.38 300.27L1202.61 293.04L1199.98 290.4zM1194.7 291.72 a6.6 6.6 0 1 0 13.2 0 a6.6 6.6 0 1 0 -13.2 0zM1208.78 320.32L1210.2 323.77L1234.76 313.6L1233.33 310.15zM1227.45 311.87 a6.6 6.6 0 1 0 13.2 0 a6.6 6.6 0 1 0 -13.2 0zM1072.55 349.28 a71.19 71.19 0 1 0 142.38 0 a71.19 71.19 0 1 0 -142.38 0z" fill="rgba(219, 219, 219, 0.3)"></path><path d="M1189.74 294.94 A70.1936 70.1936 0 0 1 1167.94 416.24M1167.94 416.24 A142.3872 142.3872 0 0 0 1189.74 294.94" fill="rgba(175, 175, 175, 0.3)" fill-rule="nonzero"></path><path d="M1118.55 285.84 a3.56 3.56 0 1 0 7.12 0 a3.56 3.56 0 1 0 -7.12 0zM1194.06 391.89 a2.85 2.85 0 1 0 5.7 0 a2.85 2.85 0 1 0 -5.7 0zM1073.46 358.04 a2.85 2.85 0 1 0 5.7 0 a2.85 2.85 0 1 0 -5.7 0zM1154.4 409.45 a7.83 7.83 0 1 0 15.66 0 a7.83 7.83 0 1 0 -15.66 0zM1099.18 371.04 a14.24 14.24 0 1 0 28.48 0 a14.24 14.24 0 1 0 -28.48 0zM1181.31 311.69 a9.97 9.97 0 1 0 19.94 0 a9.97 9.97 0 1 0 -19.94 0zM1083.58 312.76 a3.56 3.56 0 1 0 7.12 0 a3.56 3.56 0 1 0 -7.12 0zM1084.21 339.19 a6.41 6.41 0 1 0 12.82 0 a6.41 6.41 0 1 0 -12.82 0zM1133.42 314.84 a14.24 14.24 0 1 0 28.48 0 a14.24 14.24 0 1 0 -28.48 0zM1131.75 403.2 a4.27 4.27 0 1 0 8.54 0 a4.27 4.27 0 1 0 -8.54 0z" fill="rgba(175, 175, 175, 0.3)" fill-rule="nonzero"></path><path d="M861.76 314.19L861.76 317.92L875.95 317.92L875.95 314.19zM869.35 316.05 a6.6 6.6 0 1 0 13.2 0 a6.6 6.6 0 1 0 -13.2 0zM857.05 341.57L855.63 345.01L865.03 348.91L866.46 345.46zM859.15 347.18 a6.6 6.6 0 1 0 13.2 0 a6.6 6.6 0 1 0 -13.2 0zM842.23 365.06L839.6 367.7L855.28 383.38L857.92 380.74zM850 382.06 a6.6 6.6 0 1 0 13.2 0 a6.6 6.6 0 1 0 -13.2 0zM819.55 381.09L816.1 382.52L819.54 390.81L822.98 389.38zM814.66 390.09 a6.6 6.6 0 1 0 13.2 0 a6.6 6.6 0 1 0 -13.2 0zM792.45 387.22L788.73 387.22L788.73 421.04L792.45 421.04zM783.99 421.04 a6.6 6.6 0 1 0 13.2 0 a6.6 6.6 0 1 0 -13.2 0zM765.08 382.52L761.63 381.09L754.11 399.26L757.55 400.68zM749.23 399.97 a6.6 6.6 0 1 0 13.2 0 a6.6 6.6 0 1 0 -13.2 0zM741.58 367.7L738.95 365.06L729.3 374.71L731.93 377.35zM724.01 376.03 a6.6 6.6 0 1 0 13.2 0 a6.6 6.6 0 1 0 -13.2 0zM725.55 345.01L724.12 341.57L697.15 352.74L698.57 356.18zM691.26 354.46 a6.6 6.6 0 1 0 13.2 0 a6.6 6.6 0 1 0 -13.2 0zM719.42 317.92L719.42 314.19L698.82 314.19L698.82 317.92zM692.22 316.05 a6.6 6.6 0 1 0 13.2 0 a6.6 6.6 0 1 0 -13.2 0zM724.12 290.54L725.55 287.1L716.74 283.45L715.31 286.89zM709.42 285.17 a6.6 6.6 0 1 0 13.2 0 a6.6 6.6 0 1 0 -13.2 0zM738.95 267.05L741.58 264.41L723.93 246.76L721.3 249.4zM716.02 248.08 a6.6 6.6 0 1 0 13.2 0 a6.6 6.6 0 1 0 -13.2 0zM761.63 251.01L765.08 249.59L757.1 230.34L753.66 231.77zM748.78 231.06 a6.6 6.6 0 1 0 13.2 0 a6.6 6.6 0 1 0 -13.2 0zM788.73 244.88L792.45 244.88L792.45 223.25L788.73 223.25zM783.99 223.25 a6.6 6.6 0 1 0 13.2 0 a6.6 6.6 0 1 0 -13.2 0zM816.1 249.59L819.55 251.01L832.13 220.63L828.69 219.2zM823.81 219.92 a6.6 6.6 0 1 0 13.2 0 a6.6 6.6 0 1 0 -13.2 0zM839.6 264.41L842.23 267.05L857.49 251.79L854.86 249.15zM849.57 250.47 a6.6 6.6 0 1 0 13.2 0 a6.6 6.6 0 1 0 -13.2 0zM855.63 287.1L857.05 290.54L880.4 280.87L878.97 277.43zM873.09 279.15 a6.6 6.6 0 1 0 13.2 0 a6.6 6.6 0 1 0 -13.2 0zM719.4 316.05 a71.19 71.19 0 1 0 142.38 0 a71.19 71.19 0 1 0 -142.38 0z" fill="rgba(219, 219, 219, 0.3)"></path><path d="M844.39 362.68 A70.1936 70.1936 0 0 1 723.36 339.48M723.36 339.48 A142.3872 142.3872 0 0 0 844.39 362.68" fill="rgba(175, 175, 175, 0.3)" fill-rule="nonzero"></path><path d="M752.37 284.91 a14.24 14.24 0 1 0 28.48 0 a14.24 14.24 0 1 0 -28.48 0zM822.19 345.13 a14.24 14.24 0 1 0 28.48 0 a14.24 14.24 0 1 0 -28.48 0zM741.4 365.5 a3.56 3.56 0 1 0 7.12 0 a3.56 3.56 0 1 0 -7.12 0zM721.6 300.54 a2.85 2.85 0 1 0 5.7 0 a2.85 2.85 0 1 0 -5.7 0zM797.74 358.54 a6.41 6.41 0 1 0 12.82 0 a6.41 6.41 0 1 0 -12.82 0zM806.65 262.23 a10.68 10.68 0 1 0 21.36 0 a10.68 10.68 0 1 0 -21.36 0zM786.31 309.33 a9.26 9.26 0 1 0 18.52 0 a9.26 9.26 0 1 0 -18.52 0zM826.45 305.54 a10.68 10.68 0 1 0 21.36 0 a10.68 10.68 0 1 0 -21.36 0zM723.8 329.87 a14.24 14.24 0 1 0 28.48 0 a14.24 14.24 0 1 0 -28.48 0zM764.92 379.38 a4.27 4.27 0 1 0 8.54 0 a4.27 4.27 0 1 0 -8.54 0z" fill="rgba(175, 175, 175, 0.3)" fill-rule="nonzero"></path><path d="M1352.28 118.24L1352.28 121.03L1366.41 121.03L1366.41 118.24zM1361.46 119.63 a4.95 4.95 0 1 0 9.9 0 a4.95 4.95 0 1 0 -9.9 0zM1348.75 138.77L1347.68 141.35L1358.58 145.87L1359.65 143.28zM1354.17 144.58 a4.95 4.95 0 1 0 9.9 0 a4.95 4.95 0 1 0 -9.9 0zM1337.64 156.39L1335.66 158.37L1343.04 165.75L1345.02 163.77zM1339.08 164.76 a4.95 4.95 0 1 0 9.9 0 a4.95 4.95 0 1 0 -9.9 0zM1320.62 168.41L1318.04 169.48L1325.69 187.96L1328.28 186.89zM1322.03 187.43 a4.95 4.95 0 1 0 9.9 0 a4.95 4.95 0 1 0 -9.9 0zM1300.3 173.01L1297.51 173.01L1297.51 189.08L1300.3 189.08zM1293.95 189.08 a4.95 4.95 0 1 0 9.9 0 a4.95 4.95 0 1 0 -9.9 0zM1279.77 169.48L1277.19 168.41L1271.76 181.51L1274.34 182.58zM1268.1 182.05 a4.95 4.95 0 1 0 9.9 0 a4.95 4.95 0 1 0 -9.9 0zM1262.15 158.37L1260.17 156.39L1244 172.56L1245.98 174.54zM1240.04 173.55 a4.95 4.95 0 1 0 9.9 0 a4.95 4.95 0 1 0 -9.9 0zM1250.12 141.35L1249.06 138.77L1225.47 148.54L1226.54 151.12zM1221.05 149.83 a4.95 4.95 0 1 0 9.9 0 a4.95 4.95 0 1 0 -9.9 0zM1245.53 121.03L1245.53 118.24L1221.31 118.24L1221.31 121.03zM1216.36 119.63 a4.95 4.95 0 1 0 9.9 0 a4.95 4.95 0 1 0 -9.9 0zM1249.06 100.5L1250.12 97.92L1231.02 90L1229.95 92.58zM1225.53 91.29 a4.95 4.95 0 1 0 9.9 0 a4.95 4.95 0 1 0 -9.9 0zM1260.17 82.88L1262.15 80.9L1253.73 72.49L1251.76 74.46zM1247.8 73.48 a4.95 4.95 0 1 0 9.9 0 a4.95 4.95 0 1 0 -9.9 0zM1277.19 70.85L1279.77 69.78L1274.87 57.97L1272.29 59.04zM1268.63 58.5 a4.95 4.95 0 1 0 9.9 0 a4.95 4.95 0 1 0 -9.9 0zM1297.51 66.26L1300.3 66.26L1300.3 43.33L1297.51 43.33zM1293.95 43.33 a4.95 4.95 0 1 0 9.9 0 a4.95 4.95 0 1 0 -9.9 0zM1318.04 69.78L1320.62 70.85L1323.58 63.72L1320.99 62.65zM1317.33 63.19 a4.95 4.95 0 1 0 9.9 0 a4.95 4.95 0 1 0 -9.9 0zM1335.66 80.9L1337.64 82.88L1349.97 70.54L1348 68.56zM1344.04 69.55 a4.95 4.95 0 1 0 9.9 0 a4.95 4.95 0 1 0 -9.9 0zM1347.68 97.92L1348.75 100.5L1370.7 91.41L1369.63 88.82zM1365.22 90.11 a4.95 4.95 0 1 0 9.9 0 a4.95 4.95 0 1 0 -9.9 0zM1245.5 119.63 a53.4 53.4 0 1 0 106.8 0 a53.4 53.4 0 1 0 -106.8 0z" fill="rgba(219, 219, 219, 0.3)"></path><path d="M1273.94 166.83 A52.3952 52.3952 0 0 1 1270.42 74.47M1270.42 74.47 A106.7904 106.7904 0 0 0 1273.94 166.83" fill="rgba(175, 175, 175, 0.3)" fill-rule="nonzero"></path><path d="M1293.35 151.99 a10.68 10.68 0 1 0 21.36 0 a10.68 10.68 0 1 0 -21.36 0zM1296.78 70.75 a4.27 4.27 0 1 0 8.54 0 a4.27 4.27 0 1 0 -8.54 0zM1335.83 114.41 a8.01 8.01 0 1 0 16.02 0 a8.01 8.01 0 1 0 -16.02 0zM1245.99 123.95 a10.68 10.68 0 1 0 21.36 0 a10.68 10.68 0 1 0 -21.36 0zM1276.22 165.32 a3.74 3.74 0 1 0 7.48 0 a3.74 3.74 0 1 0 -7.48 0zM1306.62 89.68 a8.54 8.54 0 1 0 17.08 0 a8.54 8.54 0 1 0 -17.08 0zM1285.68 86.02 a3.74 3.74 0 1 0 7.48 0 a3.74 3.74 0 1 0 -7.48 0zM1275.33 99.91 a3.2 3.2 0 1 0 6.4 0 a3.2 3.2 0 1 0 -6.4 0zM1282.87 118.45 a8.01 8.01 0 1 0 16.02 0 a8.01 8.01 0 1 0 -16.02 0zM1323.59 141.31 a8.01 8.01 0 1 0 16.02 0 a8.01 8.01 0 1 0 -16.02 0z" fill="rgba(175, 175, 175, 0.3)" fill-rule="nonzero"></path><path d="M747.07 68.55L747.07 70.42L760.96 70.42L760.96 68.55zM757.66 69.48 a3.3 3.3 0 1 0 6.6 0 a3.3 3.3 0 1 0 -6.6 0zM744.71 82.24L744 83.96L760.19 90.67L760.9 88.95zM757.24 89.81 a3.3 3.3 0 1 0 6.6 0 a3.3 3.3 0 1 0 -6.6 0zM737.3 93.99L735.98 95.31L745.11 104.43L746.42 103.11zM742.47 103.77 a3.3 3.3 0 1 0 6.6 0 a3.3 3.3 0 1 0 -6.6 0zM725.96 102L724.24 102.72L726.62 108.46L728.34 107.75zM724.18 108.11 a3.3 3.3 0 1 0 6.6 0 a3.3 3.3 0 1 0 -6.6 0zM712.41 105.07L710.55 105.07L710.55 113.2L712.41 113.2zM708.18 113.2 a3.3 3.3 0 1 0 6.6 0 a3.3 3.3 0 1 0 -6.6 0zM698.72 102.72L697 102L694.62 107.76L696.34 108.47zM692.18 108.12 a3.3 3.3 0 1 0 6.6 0 a3.3 3.3 0 1 0 -6.6 0zM686.98 95.31L685.66 93.99L676.53 103.12L677.85 104.43zM673.89 103.78 a3.3 3.3 0 1 0 6.6 0 a3.3 3.3 0 1 0 -6.6 0zM678.96 83.96L678.25 82.24L667.25 86.8L667.96 88.52zM664.3 87.66 a3.3 3.3 0 1 0 6.6 0 a3.3 3.3 0 1 0 -6.6 0zM675.9 70.42L675.9 68.55L670.37 68.55L670.37 70.42zM667.07 69.48 a3.3 3.3 0 1 0 6.6 0 a3.3 3.3 0 1 0 -6.6 0zM678.25 56.73L678.96 55.01L666.67 49.92L665.96 51.64zM663.02 50.78 a3.3 3.3 0 1 0 6.6 0 a3.3 3.3 0 1 0 -6.6 0zM685.66 44.98L686.98 43.66L676.39 33.07L675.07 34.39zM672.43 33.73 a3.3 3.3 0 1 0 6.6 0 a3.3 3.3 0 1 0 -6.6 0zM697 36.97L698.72 36.25L694.98 27.21L693.26 27.92zM690.82 27.56 a3.3 3.3 0 1 0 6.6 0 a3.3 3.3 0 1 0 -6.6 0zM710.55 33.9L712.41 33.9L712.41 21.55L710.55 21.55zM708.18 21.55 a3.3 3.3 0 1 0 6.6 0 a3.3 3.3 0 1 0 -6.6 0zM724.24 36.25L725.96 36.97L729.08 29.44L727.36 28.72zM724.92 29.08 a3.3 3.3 0 1 0 6.6 0 a3.3 3.3 0 1 0 -6.6 0zM735.98 43.66L737.3 44.98L744.41 37.87L743.09 36.56zM740.45 37.22 a3.3 3.3 0 1 0 6.6 0 a3.3 3.3 0 1 0 -6.6 0zM744 55.01L744.71 56.73L753.97 52.89L753.26 51.17zM750.31 52.03 a3.3 3.3 0 1 0 6.6 0 a3.3 3.3 0 1 0 -6.6 0zM675.88 69.48 a35.6 35.6 0 1 0 71.2 0 a35.6 35.6 0 1 0 -71.2 0z" fill="rgba(219, 219, 219, 0.3)"></path><path d="M691.38 98.86 A34.5968 34.5968 0 0 1 696.03 37.42M696.03 37.42 A71.1936 71.1936 0 0 0 691.38 98.86" fill="rgba(175, 175, 175, 0.3)" fill-rule="nonzero"></path><path d="M740.51 67.82 a3.2 3.2 0 1 0 6.4 0 a3.2 3.2 0 1 0 -6.4 0zM700.8 79.53 a7.12 7.12 0 1 0 14.24 0 a7.12 7.12 0 1 0 -14.24 0zM680.13 59.02 a7.12 7.12 0 1 0 14.24 0 a7.12 7.12 0 1 0 -14.24 0zM693.01 90.27 a2.14 2.14 0 1 0 4.28 0 a2.14 2.14 0 1 0 -4.28 0zM700.87 101.77 a2.14 2.14 0 1 0 4.28 0 a2.14 2.14 0 1 0 -4.28 0zM680.38 75.24 a2.49 2.49 0 1 0 4.98 0 a2.49 2.49 0 1 0 -4.98 0zM711.27 54.96 a7.12 7.12 0 1 0 14.24 0 a7.12 7.12 0 1 0 -14.24 0zM693.69 43.16 a5.7 5.7 0 1 0 11.4 0 a5.7 5.7 0 1 0 -11.4 0zM721.99 83.79 a6.05 6.05 0 1 0 12.1 0 a6.05 6.05 0 1 0 -12.1 0zM724.98 100.15 a1.42 1.42 0 1 0 2.84 0 a1.42 1.42 0 1 0 -2.84 0z" fill="rgba(175, 175, 175, 0.3)" fill-rule="nonzero"></path><path d="M365.28 141.12L365.28 143.45L380.73 143.45L380.73 141.12zM376.6 142.29 a4.13 4.13 0 1 0 8.26 0 a4.13 4.13 0 1 0 -8.26 0zM362.34 158.23L361.45 160.39L376.58 166.66L377.47 164.5zM372.9 165.58 a4.13 4.13 0 1 0 8.26 0 a4.13 4.13 0 1 0 -8.26 0zM353.08 172.92L351.43 174.56L358.65 181.78L360.29 180.14zM355.34 180.96 a4.13 4.13 0 1 0 8.26 0 a4.13 4.13 0 1 0 -8.26 0zM338.9 182.94L336.75 183.83L343.15 199.29L345.3 198.39zM340.09 198.84 a4.13 4.13 0 1 0 8.26 0 a4.13 4.13 0 1 0 -8.26 0zM321.96 186.77L319.63 186.77L319.63 199.14L321.96 199.14zM316.67 199.14 a4.13 4.13 0 1 0 8.26 0 a4.13 4.13 0 1 0 -8.26 0zM304.85 183.83L302.7 182.94L294.42 202.92L296.58 203.81zM291.37 203.37 a4.13 4.13 0 1 0 8.26 0 a4.13 4.13 0 1 0 -8.26 0zM290.17 174.56L288.52 172.92L283.51 177.93L285.16 179.58zM280.2 178.75 a4.13 4.13 0 1 0 8.26 0 a4.13 4.13 0 1 0 -8.26 0zM280.15 160.39L279.26 158.23L261.52 165.58L262.41 167.73zM257.84 166.66 a4.13 4.13 0 1 0 8.26 0 a4.13 4.13 0 1 0 -8.26 0zM276.32 143.45L276.32 141.12L263.38 141.12L263.38 143.45zM259.25 142.29 a4.13 4.13 0 1 0 8.26 0 a4.13 4.13 0 1 0 -8.26 0zM279.26 126.34L280.15 124.19L272.85 121.17L271.96 123.32zM268.28 122.24 a4.13 4.13 0 1 0 8.26 0 a4.13 4.13 0 1 0 -8.26 0zM288.52 111.66L290.17 110.01L277.65 97.5L276.01 99.14zM272.7 98.32 a4.13 4.13 0 1 0 8.26 0 a4.13 4.13 0 1 0 -8.26 0zM302.7 101.64L304.85 100.75L299.8 88.55L297.65 89.44zM294.6 89 a4.13 4.13 0 1 0 8.26 0 a4.13 4.13 0 1 0 -8.26 0zM319.63 97.81L321.96 97.81L321.96 81.75L319.63 81.75zM316.67 81.75 a4.13 4.13 0 1 0 8.26 0 a4.13 4.13 0 1 0 -8.26 0zM336.75 100.75L338.9 101.64L346.77 82.63L344.62 81.73zM341.57 82.18 a4.13 4.13 0 1 0 8.26 0 a4.13 4.13 0 1 0 -8.26 0zM351.43 110.01L353.08 111.66L366.62 98.11L364.98 96.46zM361.67 97.29 a4.13 4.13 0 1 0 8.26 0 a4.13 4.13 0 1 0 -8.26 0zM361.45 124.19L362.34 126.34L373.64 121.66L372.75 119.51zM369.06 120.59 a4.13 4.13 0 1 0 8.26 0 a4.13 4.13 0 1 0 -8.26 0zM276.3 142.29 a44.5 44.5 0 1 0 89 0 a44.5 44.5 0 1 0 -89 0z" fill="rgba(219, 219, 219, 0.3)"></path><path d="M306.98 184.59 A43.496 43.496 0 0 1 291.01 109.24M291.01 109.24 A88.992 88.992 0 0 0 306.98 184.59" fill="rgba(175, 175, 175, 0.3)" fill-rule="nonzero"></path><path d="M276.63 140.26 a7.56 7.56 0 1 0 15.12 0 a7.56 7.56 0 1 0 -15.12 0zM282.71 120.35 a3.11 3.11 0 1 0 6.22 0 a3.11 3.11 0 1 0 -6.22 0zM334.93 112.02 a7.12 7.12 0 1 0 14.24 0 a7.12 7.12 0 1 0 -14.24 0zM302.08 159.17 a8.9 8.9 0 1 0 17.8 0 a8.9 8.9 0 1 0 -17.8 0zM313.08 117.58 a6.67 6.67 0 1 0 13.34 0 a6.67 6.67 0 1 0 -13.34 0zM327.48 174.84 a8.45 8.45 0 1 0 16.9 0 a8.45 8.45 0 1 0 -16.9 0zM314.63 178.33 a1.78 1.78 0 1 0 3.56 0 a1.78 1.78 0 1 0 -3.56 0zM344.65 134.39 a8.9 8.9 0 1 0 17.8 0 a8.9 8.9 0 1 0 -17.8 0zM308.34 136.38 a4.45 4.45 0 1 0 8.9 0 a4.45 4.45 0 1 0 -8.9 0zM355.16 155.14 a3.11 3.11 0 1 0 6.22 0 a3.11 3.11 0 1 0 -6.22 0z" fill="rgba(175, 175, 175, 0.3)" fill-rule="nonzero"></path><path d="M579.46 170.04L579.46 172.37L586.13 172.37L586.13 170.04zM582 171.21 a4.13 4.13 0 1 0 8.26 0 a4.13 4.13 0 1 0 -8.26 0zM576.51 187.15L575.62 189.3L595.41 197.5L596.3 195.35zM591.73 196.43 a4.13 4.13 0 1 0 8.26 0 a4.13 4.13 0 1 0 -8.26 0zM567.25 201.84L565.6 203.48L574.64 212.52L576.29 210.87zM571.33 211.7 a4.13 4.13 0 1 0 8.26 0 a4.13 4.13 0 1 0 -8.26 0zM553.07 211.86L550.92 212.75L553.54 219.07L555.69 218.18zM550.48 218.62 a4.13 4.13 0 1 0 8.26 0 a4.13 4.13 0 1 0 -8.26 0zM536.14 215.69L533.81 215.69L533.81 234.64L536.14 234.64zM530.84 234.64 a4.13 4.13 0 1 0 8.26 0 a4.13 4.13 0 1 0 -8.26 0zM519.03 212.75L516.88 211.86L512.76 221.79L514.91 222.68zM509.71 222.23 a4.13 4.13 0 1 0 8.26 0 a4.13 4.13 0 1 0 -8.26 0zM504.35 203.48L502.7 201.84L491.99 212.54L493.64 214.19zM488.69 213.37 a4.13 4.13 0 1 0 8.26 0 a4.13 4.13 0 1 0 -8.26 0zM494.33 189.3L493.43 187.15L481.71 192.01L482.6 194.16zM478.03 193.09 a4.13 4.13 0 1 0 8.26 0 a4.13 4.13 0 1 0 -8.26 0zM490.49 172.37L490.49 170.04L472.77 170.04L472.77 172.37zM468.64 171.21 a4.13 4.13 0 1 0 8.26 0 a4.13 4.13 0 1 0 -8.26 0zM493.43 155.26L494.33 153.11L477.05 145.95L476.16 148.1zM472.47 147.03 a4.13 4.13 0 1 0 8.26 0 a4.13 4.13 0 1 0 -8.26 0zM502.7 140.58L504.35 138.93L498 132.59L496.36 134.24zM493.05 133.41 a4.13 4.13 0 1 0 8.26 0 a4.13 4.13 0 1 0 -8.26 0zM516.88 130.56L519.03 129.67L513.77 116.98L511.62 117.87zM508.57 117.43 a4.13 4.13 0 1 0 8.26 0 a4.13 4.13 0 1 0 -8.26 0zM533.81 126.73L536.14 126.73L536.14 114.53L533.81 114.53zM530.84 114.53 a4.13 4.13 0 1 0 8.26 0 a4.13 4.13 0 1 0 -8.26 0zM550.92 129.67L553.07 130.56L556.55 122.15L554.4 121.26zM551.35 121.7 a4.13 4.13 0 1 0 8.26 0 a4.13 4.13 0 1 0 -8.26 0zM565.6 138.93L567.25 140.58L582.02 125.81L580.37 124.16zM577.07 124.98 a4.13 4.13 0 1 0 8.26 0 a4.13 4.13 0 1 0 -8.26 0zM575.62 153.11L576.51 155.26L595.64 147.34L594.75 145.19zM591.06 146.26 a4.13 4.13 0 1 0 8.26 0 a4.13 4.13 0 1 0 -8.26 0zM490.47 171.21 a44.5 44.5 0 1 0 89 0 a44.5 44.5 0 1 0 -89 0z" fill="rgba(219, 219, 219, 0.3)"></path><path d="M574.67 151.11 A43.496 43.496 0 0 1 532.62 215.64M532.62 215.64 A88.992 88.992 0 0 0 574.67 151.11" fill="rgba(175, 175, 175, 0.3)" fill-rule="nonzero"></path><path d="M491.86 181.54 a3.56 3.56 0 1 0 7.12 0 a3.56 3.56 0 1 0 -7.12 0zM519.91 200.08 a8.9 8.9 0 1 0 17.8 0 a8.9 8.9 0 1 0 -17.8 0zM570.91 186.12 a2.67 2.67 0 1 0 5.34 0 a2.67 2.67 0 1 0 -5.34 0zM522.89 151.95 a8.9 8.9 0 1 0 17.8 0 a8.9 8.9 0 1 0 -17.8 0zM524.25 178.86 a3.11 3.11 0 1 0 6.22 0 a3.11 3.11 0 1 0 -6.22 0zM545.76 193.74 a3.11 3.11 0 1 0 6.22 0 a3.11 3.11 0 1 0 -6.22 0zM544.44 178.62 a3.11 3.11 0 1 0 6.22 0 a3.11 3.11 0 1 0 -6.22 0zM509.73 137.31 a4.45 4.45 0 1 0 8.9 0 a4.45 4.45 0 1 0 -8.9 0zM567.07 169.69 a4.89 4.89 0 1 0 9.78 0 a4.89 4.89 0 1 0 -9.78 0zM561.23 154.22 a3.11 3.11 0 1 0 6.22 0 a3.11 3.11 0 1 0 -6.22 0z" fill="rgba(175, 175, 175, 0.3)" fill-rule="nonzero"></path><path d="M1118 96.58L1118 98.44L1127.99 98.44L1127.99 96.58zM1124.69 97.51 a3.3 3.3 0 1 0 6.6 0 a3.3 3.3 0 1 0 -6.6 0zM1115.65 110.27L1114.94 111.99L1125.9 116.53L1126.62 114.81zM1122.96 115.67 a3.3 3.3 0 1 0 6.6 0 a3.3 3.3 0 1 0 -6.6 0zM1108.24 122.01L1106.92 123.33L1115.77 132.18L1117.09 130.86zM1113.13 131.52 a3.3 3.3 0 1 0 6.6 0 a3.3 3.3 0 1 0 -6.6 0zM1096.9 130.03L1095.17 130.74L1099.17 140.39L1100.89 139.67zM1096.73 140.03 a3.3 3.3 0 1 0 6.6 0 a3.3 3.3 0 1 0 -6.6 0zM1083.35 133.09L1081.48 133.09L1081.48 146.71L1083.35 146.71zM1079.12 146.71 a3.3 3.3 0 1 0 6.6 0 a3.3 3.3 0 1 0 -6.6 0zM1069.66 130.74L1067.94 130.03L1064.75 137.73L1066.47 138.45zM1062.31 138.09 a3.3 3.3 0 1 0 6.6 0 a3.3 3.3 0 1 0 -6.6 0zM1057.91 123.33L1056.6 122.01L1045.85 132.75L1047.17 134.07zM1043.21 133.41 a3.3 3.3 0 1 0 6.6 0 a3.3 3.3 0 1 0 -6.6 0zM1049.9 111.99L1049.18 110.27L1035.32 116.01L1036.03 117.73zM1032.37 116.87 a3.3 3.3 0 1 0 6.6 0 a3.3 3.3 0 1 0 -6.6 0zM1046.83 98.44L1046.83 96.58L1036.48 96.58L1036.48 98.44zM1033.18 97.51 a3.3 3.3 0 1 0 6.6 0 a3.3 3.3 0 1 0 -6.6 0zM1049.18 84.75L1049.9 83.03L1044.73 80.89L1044.02 82.61zM1041.08 81.75 a3.3 3.3 0 1 0 6.6 0 a3.3 3.3 0 1 0 -6.6 0zM1056.6 73.01L1057.91 71.69L1052.8 66.58L1051.48 67.89zM1048.84 67.23 a3.3 3.3 0 1 0 6.6 0 a3.3 3.3 0 1 0 -6.6 0zM1067.94 64.99L1069.66 64.28L1065.8 54.95L1064.08 55.67zM1061.64 55.31 a3.3 3.3 0 1 0 6.6 0 a3.3 3.3 0 1 0 -6.6 0zM1081.48 61.92L1083.35 61.92L1083.35 53.84L1081.48 53.84zM1079.12 53.84 a3.3 3.3 0 1 0 6.6 0 a3.3 3.3 0 1 0 -6.6 0zM1095.17 64.28L1096.9 64.99L1101.19 54.62L1099.47 53.91zM1097.03 54.27 a3.3 3.3 0 1 0 6.6 0 a3.3 3.3 0 1 0 -6.6 0zM1106.92 71.69L1108.24 73.01L1111.8 69.44L1110.48 68.12zM1107.84 68.78 a3.3 3.3 0 1 0 6.6 0 a3.3 3.3 0 1 0 -6.6 0zM1114.94 83.03L1115.65 84.75L1122.02 82.11L1121.31 80.39zM1118.37 81.25 a3.3 3.3 0 1 0 6.6 0 a3.3 3.3 0 1 0 -6.6 0zM1046.82 97.51 a35.6 35.6 0 1 0 71.2 0 a35.6 35.6 0 1 0 -71.2 0z" fill="rgba(219, 219, 219, 0.3)"></path><path d="M1071.96 63.48 A34.5968 34.5968 0 0 1 1117.13 105.39M1117.13 105.39 A71.1936 71.1936 0 0 0 1071.96 63.48" fill="rgba(175, 175, 175, 0.3)" fill-rule="nonzero"></path><path d="M1068.47 105.35 a7.12 7.12 0 1 0 14.24 0 a7.12 7.12 0 1 0 -14.24 0zM1088.47 90.98 a7.12 7.12 0 1 0 14.24 0 a7.12 7.12 0 1 0 -14.24 0zM1047.59 103.04 a6.41 6.41 0 1 0 12.82 0 a6.41 6.41 0 1 0 -12.82 0zM1068.9 70.57 a7.12 7.12 0 1 0 14.24 0 a7.12 7.12 0 1 0 -14.24 0zM1062.93 121.28 a3.92 3.92 0 1 0 7.84 0 a3.92 3.92 0 1 0 -7.84 0zM1054.25 79.14 a4.63 4.63 0 1 0 9.26 0 a4.63 4.63 0 1 0 -9.26 0zM1081.13 125.76 a6.76 6.76 0 1 0 13.52 0 a6.76 6.76 0 1 0 -13.52 0zM1071.09 87.06 a2.14 2.14 0 1 0 4.28 0 a2.14 2.14 0 1 0 -4.28 0zM1109.68 88.4 a2.85 2.85 0 1 0 5.7 0 a2.85 2.85 0 1 0 -5.7 0zM1101.51 121.5 a2.49 2.49 0 1 0 4.98 0 a2.49 2.49 0 1 0 -4.98 0z" fill="rgba(175, 175, 175, 0.3)" fill-rule="nonzero"></path></g><defs><mask id="SvgjsMask1008"><rect width="1440" height="560" fill="#ffffff"></rect></mask></defs></svg>